<svg width="33" height="31" viewBox="0 0 33 31" fill="none" xmlns="http://www.w3.org/2000/svg">
<path fill-rule="evenodd" clip-rule="evenodd" d="M15.4349 2.28665C8.17333 2.28665 2.28665 8.17333 2.28665 15.4349C2.28665 22.6965 8.17333 28.5832 15.4349 28.5832C22.6965 28.5832 28.5832 22.6965 28.5832 15.4349H30.8698C30.8698 23.9594 23.9594 30.8698 15.4349 30.8698C6.91045 30.8698 0 23.9594 0 15.4349C0 6.91045 6.91045 0 15.4349 0H32.8706V2.28665H15.4349Z" fill="#535151"/>
<path fill-rule="evenodd" clip-rule="evenodd" d="M15.3247 5.71659C10.0293 5.71659 5.71659 10.0566 5.71659 15.4349C5.71659 20.8131 10.0293 25.1531 15.3247 25.1531C20.6202 25.1531 24.9329 20.8131 24.9329 15.4349H27.2195C27.2195 22.054 21.905 27.4398 15.3247 27.4398C8.74445 27.4398 3.42993 22.054 3.42993 15.4349C3.42993 8.81574 8.74445 3.42993 15.3247 3.42993H32.8706V5.71659H15.3247Z" fill="#535151"/>
<path fill-rule="evenodd" clip-rule="evenodd" d="M15.3187 9.14627C11.9269 9.14627 9.14664 11.9446 9.14664 15.4346C9.14664 18.9246 11.9269 21.7229 15.3187 21.7229C18.7106 21.7229 21.4908 18.9246 21.4908 15.4346H23.7775C23.7775 20.1533 20.0073 24.0095 15.3187 24.0095C10.6302 24.0095 6.85999 20.1533 6.85999 15.4346C6.85999 10.7158 10.6302 6.85962 15.3187 6.85962H32.8707V9.14627H15.3187Z" fill="#535151"/>
<path fill-rule="evenodd" clip-rule="evenodd" d="M17.496 10.0039H13.1841L4.55286 26.2964L11.8894 26.2962L12.1798 25.8846C12.898 24.8663 14.0805 24.2044 15.4174 24.2044C16.7544 24.2044 17.9369 24.8663 18.6551 25.8846L18.9455 26.2962L26.2965 26.2964L17.496 10.0039Z" fill="#F7F8FB"/>
<path d="M6.28833 25.5035L13.9081 10.8616H17.0457L24.8149 25.5035H23.022L16.2986 12.8039H14.6552L8.08122 25.5035H6.28833Z" fill="#EB791E"/>
<path d="M11.8164 21.3203L15.5516 14.1487L19.2868 21.3203L17.0457 20.4238L15.5516 17.4357L14.0575 20.4238L11.8164 21.3203Z" fill="#EB791E"/>
<path fill-rule="evenodd" clip-rule="evenodd" d="M21.6481 25.5036C20.5779 23.2091 18.2505 21.6189 15.5517 21.6189C12.8528 21.6189 10.5254 23.2091 9.4552 25.5036H11.5197C12.4122 24.2381 13.8854 23.4116 15.5517 23.4116C17.2179 23.4116 18.6911 24.2381 19.5836 25.5036H21.6481Z" fill="#EB791E"/>
<path d="M29.7265 13.1479L31.1557 15.4346H28.2974L29.7265 13.1479Z" fill="#EB791E"/>
<path d="M26.0107 13.1479L27.4399 15.4346H24.5815L26.0107 13.1479Z" fill="#EB791E"/>
<path d="M22.5806 13.1479L24.0098 15.4346H21.1515L22.5806 13.1479Z" fill="#EB791E"/>
</svg>
