<svg width="169" height="54" viewBox="0 0 169 54" fill="none" xmlns="http://www.w3.org/2000/svg">
<path fill-rule="evenodd" clip-rule="evenodd" d="M27 4C14.2975 4 4 14.2975 4 27C4 39.7025 14.2975 50 27 50C39.7025 50 50 39.7025 50 27H54C54 41.9117 41.9117 54 27 54C12.0883 54 0 41.9117 0 27C0 12.0883 12.0883 0 27 0H57.5V4H27Z" fill="#1F1F1F"/>
<path fill-rule="evenodd" clip-rule="evenodd" d="M26.8073 10C17.5441 10 10 17.5919 10 27C10 36.4081 17.5441 44 26.8073 44C36.0706 44 43.6147 36.4081 43.6147 27H47.6147C47.6147 38.5787 38.3181 48 26.8073 48C15.2966 48 6 38.5787 6 27C6 15.4213 15.2966 6 26.8073 6H57.5V10H26.8073Z" fill="#1F1F1F"/>
<path fill-rule="evenodd" clip-rule="evenodd" d="M26.7967 16C20.8635 16 16 20.895 16 27C16 33.105 20.8635 38 26.7967 38C32.73 38 37.5935 33.105 37.5935 27H41.5935C41.5935 35.2544 34.9984 42 26.7967 42C18.5951 42 12 35.2544 12 27C12 18.7456 18.5951 12 26.7967 12H57.5V16H26.7967Z" fill="#1F1F1F"/>
<path fill-rule="evenodd" clip-rule="evenodd" d="M30.6054 17.5H23.0627L7.96417 46.0001L20.7978 45.9999L21.3058 45.2797C22.5622 43.4984 24.6306 42.3407 26.9694 42.3407C29.3081 42.3407 31.3765 43.4984 32.633 45.2797L33.1409 45.9999L46 46.0001L30.6054 17.5Z" fill="white"/>
<path d="M11 44.6129L24.3292 19H29.8176L43.4082 44.6129H40.2719L28.5109 22.3976H25.6359L14.1363 44.6129H11Z" fill="#EB791E"/>
<path d="M20.6702 37.2951L27.2041 24.75L33.738 37.2951L29.8176 35.727L27.2041 30.4998L24.5905 35.727L20.6702 37.2951Z" fill="#EB791E"/>
<path fill-rule="evenodd" clip-rule="evenodd" d="M37.8684 44.6129C35.9963 40.5992 31.925 37.8176 27.2041 37.8176C22.4831 37.8176 18.4118 40.5992 16.5397 44.6129H20.1513C21.7125 42.3994 24.2895 40.9537 27.2041 40.9537C30.1187 40.9537 32.6956 42.3994 34.2569 44.6129H37.8684Z" fill="#EB791E"/>
<path d="M52 23L54.5 27H49.5L52 23Z" fill="#EB791E"/>
<path d="M45.5 23L48 27H43L45.5 23Z" fill="#EB791E"/>
<path d="M39.5 23L42 27H37L39.5 23Z" fill="#EB791E"/>
<path d="M95.8312 37.5364H89.6221L87.8661 33.4764H76.9791L75.2232 37.5364H69L78.5946 16.4636H86.2506L95.8312 37.5364ZM82.4156 20.9029L79.002 28.7982H85.8433L82.4156 20.9029Z" fill="#1F1F1F"/>
<path d="M119.968 28.7139C119.762 30.559 119.125 32.1839 118.058 33.5888C116.99 34.9842 115.581 36.0707 113.829 36.848C112.078 37.616 110.097 38 107.887 38C105.462 38 103.322 37.5411 101.467 36.6232C99.6131 35.7054 98.1756 34.4176 97.1548 32.7599C96.1433 31.0928 95.6376 29.1728 95.6376 27C95.6376 24.8272 96.1433 22.9119 97.1548 21.2542C98.1756 19.5871 99.6131 18.2946 101.467 17.3768C103.322 16.4589 105.462 16 107.887 16C110.097 16 112.078 16.3887 113.829 17.166C115.581 17.934 116.99 19.0204 118.058 20.4253C119.125 21.8208 119.762 23.441 119.968 25.2861H114.11C113.829 23.9562 113.15 22.9166 112.073 22.1673C110.996 21.4181 109.596 21.0434 107.873 21.0434C106.571 21.0434 105.443 21.2869 104.488 21.7739C103.542 22.2516 102.811 22.94 102.296 23.8391C101.791 24.7288 101.538 25.7825 101.538 27C101.538 28.2175 101.791 29.2759 102.296 30.175C102.811 31.0647 103.542 31.7531 104.488 32.2401C105.443 32.7178 106.571 32.9566 107.873 32.9566C109.615 32.9566 111.02 32.596 112.088 31.8748C113.165 31.1443 113.839 30.0907 114.11 28.7139H119.968Z" fill="#1F1F1F"/>
<path d="M132.172 27.4215L138.409 16.4636H144.716L132.593 37.5364H126.286L128.955 32.9004L119.459 16.4636H125.893L132.172 27.4215Z" fill="#1F1F1F"/>
<path d="M146.678 37.5364V16.4636H169V37.5364H163.184V21.6194H152.508V37.5364H146.678Z" fill="#1F1F1F"/>
</svg>
