<svg width="26" height="26" viewBox="0 0 26 26" fill="none" xmlns="http://www.w3.org/2000/svg">
<circle cx="13" cy="13" r="13" fill="url(#paint0_radial_483_2071)"/>
<path d="M12.32 15.864C12.32 15.464 12.344 15.1013 12.392 14.776C12.4453 14.4453 12.5573 14.1253 12.728 13.816C12.8827 13.5173 13.0667 13.2747 13.28 13.088C13.4933 12.896 13.7227 12.712 13.968 12.536C14.2133 12.36 14.456 12.144 14.696 11.888C14.9093 11.648 15.0507 11.408 15.12 11.168C15.1893 10.9227 15.224 10.664 15.224 10.392C15.224 10.152 15.1947 9.936 15.136 9.744C15.0827 9.54667 14.992 9.37867 14.864 9.24C14.672 9 14.432 8.83467 14.144 8.744C13.8613 8.65333 13.5653 8.608 13.256 8.608C12.9627 8.608 12.6853 8.648 12.424 8.728C12.168 8.808 11.9547 8.93333 11.784 9.104C11.6133 9.25867 11.488 9.448 11.408 9.672C11.328 9.89067 11.288 10.128 11.288 10.384H9.8C9.832 9.92 9.94133 9.48 10.128 9.064C10.32 8.64267 10.584 8.296 10.92 8.024C11.2347 7.75733 11.5947 7.56267 12 7.44C12.4053 7.312 12.8133 7.248 13.224 7.248C13.768 7.248 14.2827 7.33067 14.768 7.496C15.2587 7.66133 15.6667 7.936 15.992 8.32C16.2427 8.592 16.4293 8.904 16.552 9.256C16.6747 9.608 16.736 9.97867 16.736 10.368C16.736 10.8427 16.64 11.2853 16.448 11.696C16.2613 12.1067 16.008 12.4773 15.688 12.808C15.512 13 15.32 13.176 15.112 13.336C14.9093 13.496 14.7147 13.656 14.528 13.816C14.3467 13.976 14.2027 14.152 14.096 14.344C13.9573 14.5947 13.8773 14.8267 13.856 15.04C13.84 15.248 13.832 15.5227 13.832 15.864H12.32ZM12.328 19V17.248H13.832V19H12.328Z" fill="#6A7787"/>
<defs>
<radialGradient id="paint0_radial_483_2071" cx="0" cy="0" r="1" gradientUnits="userSpaceOnUse" gradientTransform="translate(13 10.5) rotate(65.1363) scale(22.5942)">
<stop stop-color="white"/>
<stop offset="1" stop-color="#C3C6DF"/>
</radialGradient>
</defs>
</svg>
